<svg width="31" height="36" viewBox="0 0 31 36" fill="none" xmlns="http://www.w3.org/2000/svg">
<path d="M29.4036 35.4337H0L13.8137 17.7168H3.25827V17.1851H14.2436L27.2088 0.531731H18.5653C16.7156 0.531731 15.0384 0.574157 13.5309 0.656179C12.0205 0.74103 10.6035 0.893761 9.27701 1.12003C7.95617 1.34064 6.65229 1.64045 5.36256 2.0251C4.07283 2.4041 2.73219 2.89624 1.3463 3.50716V0H30.7499L17.3548 17.1851H28.7361V17.7168H16.9362L3.5411 34.9019H12.1846C14.023 34.9019 15.6974 34.8623 17.2077 34.7775C18.7237 34.6955 20.1407 34.5455 21.4616 34.3249C22.7881 34.0987 24.0919 33.7904 25.376 33.3972C26.6657 33.0069 28.0064 32.5148 29.4036 31.9265V35.4337Z" fill="white"/>
</svg>
