<svg width="164" height="48" viewBox="0 0 164 48" fill="none" xmlns="http://www.w3.org/2000/svg">
<path d="M0.322266 44V38.7266L22.3242 11.2168C23.8867 9.26367 25.3711 7.56445 26.7773 6.11914H2.8125V1.05078H33.5742V6.11914L9.46289 35.9141L6.85547 38.9316H34.2773V44H0.322266ZM52.5293 44V25.8066L35.9766 1.05078H42.8906L51.3574 14C52.9199 16.4219 54.375 18.8438 55.7227 21.2656C57.0117 19.0195 58.5742 16.4902 60.4102 13.6777L68.7305 1.05078H75.3516L58.2129 25.8066V44H52.5293ZM80.3906 44V1.05078H86.2207L108.779 34.7715V1.05078H114.229V44H108.398L85.8398 10.25V44H80.3906ZM156.357 39.4004C158.994 41.2168 161.426 42.5449 163.652 43.3848L161.982 47.3398C158.896 46.2266 155.82 44.4688 152.754 42.0664C149.57 43.8438 146.055 44.7324 142.207 44.7324C138.32 44.7324 134.795 43.7949 131.631 41.9199C128.467 40.0449 126.025 37.4082 124.307 34.0098C122.607 30.6113 121.758 26.7832 121.758 22.5254C121.758 18.2871 122.617 14.4297 124.336 10.9531C126.055 7.47656 128.496 4.83008 131.66 3.01367C134.844 1.19727 138.398 0.289062 142.324 0.289062C146.289 0.289062 149.863 1.23633 153.047 3.13086C156.23 5.00586 158.652 7.64258 160.312 11.041C161.992 14.4199 162.832 18.2383 162.832 22.4961C162.832 26.0312 162.295 29.2148 161.221 32.0469C160.146 34.8594 158.525 37.3105 156.357 39.4004ZM143.848 32.1348C147.129 33.0527 149.834 34.4199 151.963 36.2363C155.303 33.1895 156.973 28.6094 156.973 22.4961C156.973 19.0195 156.377 15.9824 155.186 13.3848C154.014 10.7871 152.285 8.77539 150 7.34961C147.734 5.9043 145.186 5.18164 142.354 5.18164C138.115 5.18164 134.6 6.63672 131.807 9.54688C129.014 12.4375 127.617 16.7637 127.617 22.5254C127.617 28.1113 128.994 32.3984 131.748 35.3867C134.521 38.375 138.057 39.8691 142.354 39.8691C144.385 39.8691 146.299 39.4883 148.096 38.7266C146.318 37.5742 144.443 36.7539 142.471 36.2656L143.848 32.1348Z" fill="black"/>
</svg>
