<svg width="177" height="100" viewBox="0 0 177 100" fill="none" xmlns="http://www.w3.org/2000/svg">
<path d="M177 0H0V100H177V0Z" fill="white"/>
<path d="M6.32227 70V64.7266L28.3242 37.2168C29.8867 35.2637 31.3711 33.5645 32.7773 32.1191H8.8125V27.0508H39.5742V32.1191L15.4629 61.9141L12.8555 64.9316H40.2773V70H6.32227ZM58.5293 70V51.8066L41.9766 27.0508H48.8906L57.3574 40C58.9199 42.4219 60.375 44.8438 61.7227 47.2656C63.0117 45.0195 64.5742 42.4902 66.4102 39.6777L74.7305 27.0508H81.3516L64.2129 51.8066V70H58.5293ZM86.3906 70V27.0508H92.2207L114.779 60.7715V27.0508H120.229V70H114.398L91.8398 36.25V70H86.3906ZM162.357 65.4004C164.994 67.2168 167.426 68.5449 169.652 69.3848L167.982 73.3398C164.896 72.2266 161.82 70.4688 158.754 68.0664C155.57 69.8438 152.055 70.7324 148.207 70.7324C144.32 70.7324 140.795 69.7949 137.631 67.9199C134.467 66.0449 132.025 63.4082 130.307 60.0098C128.607 56.6113 127.758 52.7832 127.758 48.5254C127.758 44.2871 128.617 40.4297 130.336 36.9531C132.055 33.4766 134.496 30.8301 137.66 29.0137C140.844 27.1973 144.398 26.2891 148.324 26.2891C152.289 26.2891 155.863 27.2363 159.047 29.1309C162.23 31.0059 164.652 33.6426 166.312 37.041C167.992 40.4199 168.832 44.2383 168.832 48.4961C168.832 52.0312 168.295 55.2148 167.221 58.0469C166.146 60.8594 164.525 63.3105 162.357 65.4004ZM149.848 58.1348C153.129 59.0527 155.834 60.4199 157.963 62.2363C161.303 59.1895 162.973 54.6094 162.973 48.4961C162.973 45.0195 162.377 41.9824 161.186 39.3848C160.014 36.7871 158.285 34.7754 156 33.3496C153.734 31.9043 151.186 31.1816 148.354 31.1816C144.115 31.1816 140.6 32.6367 137.807 35.5469C135.014 38.4375 133.617 42.7637 133.617 48.5254C133.617 54.1113 134.994 58.3984 137.748 61.3867C140.521 64.375 144.057 65.8691 148.354 65.8691C150.385 65.8691 152.299 65.4883 154.096 64.7266C152.318 63.5742 150.443 62.7539 148.471 62.2656L149.848 58.1348Z" fill="black"/>
</svg>
