<svg width="96" height="28" viewBox="0 0 96 28" fill="none" xmlns="http://www.w3.org/2000/svg">
<path d="M0.000488281 25.498V22.4219L12.835 6.37451C13.7464 5.23519 14.6123 4.24398 15.4326 3.40088H1.45312V0.444336H19.3975V3.40088L5.33252 20.7812L3.81152 22.5415H19.8076V25.498H0.000488281ZM30.4546 25.498V14.8853L20.7988 0.444336H24.832L29.771 7.99805C30.6825 9.41081 31.5312 10.8236 32.3174 12.2363C33.0693 10.9261 33.9808 9.45068 35.0518 7.81006L39.9053 0.444336H43.7676L33.77 14.8853V25.498H30.4546ZM46.707 25.498V0.444336H50.1079L63.2671 20.1147V0.444336H66.4458V25.498H63.0449L49.8857 5.81055V25.498H46.707ZM91.021 22.8149C92.5591 23.8745 93.9775 24.6493 95.2764 25.1392L94.3022 27.4463C92.5021 26.7969 90.7077 25.7715 88.9189 24.3701C87.0618 25.4069 85.0111 25.9253 82.7666 25.9253C80.4993 25.9253 78.4429 25.3784 76.5972 24.2847C74.7515 23.1909 73.3273 21.6528 72.3247 19.6704C71.3335 17.688 70.8379 15.4549 70.8379 12.9712C70.8379 10.4989 71.3392 8.2487 72.3418 6.2207C73.3444 4.19271 74.7686 2.64893 76.6143 1.58936C78.4714 0.529785 80.5449 0 82.835 0C85.1478 0 87.2327 0.552572 89.0898 1.65771C90.9469 2.75146 92.3597 4.28955 93.3281 6.27197C94.3079 8.243 94.7979 10.4704 94.7979 12.9541C94.7979 15.0163 94.4845 16.8734 93.8579 18.5254C93.2313 20.166 92.2856 21.5959 91.021 22.8149ZM83.7236 18.5767C85.6377 19.1121 87.2157 19.9097 88.4575 20.9692C90.4058 19.1919 91.3799 16.5202 91.3799 12.9541C91.3799 10.9261 91.0324 9.15446 90.3374 7.63916C89.6538 6.12386 88.6455 4.95036 87.3125 4.11865C85.9909 3.27555 84.5041 2.854 82.8521 2.854C80.3797 2.854 78.3289 3.7028 76.6997 5.40039C75.0705 7.08659 74.2559 9.61019 74.2559 12.9712C74.2559 16.2297 75.0591 18.7305 76.6655 20.4736C78.2834 22.2168 80.3455 23.0884 82.8521 23.0884C84.0369 23.0884 85.1535 22.8662 86.2017 22.4219C85.1649 21.7497 84.0711 21.2712 82.9204 20.9863L83.7236 18.5767Z" fill="white"/>
</svg>
